PathFileType	4	(X/Y/Z)	C:/Users/opensim2020/Desktop/walking_exp_matlab/subject02_walking15_straight_04.trc	
DataRate	CameraRate	NumFrames	NumMarkers	Units	OrigDataRate	OrigDataStartFrame	OrigNumFrames	
100.00	100.00	4	42	mm	100.00	1793	152	
Frame#	Time	LFHD			RFHD			LBHD			RBHD			C7			T10			CLAV			STRN			RBAK			LSHO			LUPA			LELB			LFRM			LWRA			LWRB			LFIN			RSHO			RUPA			RELB			RFRM			RWRA			RWRB			RFIN			LASI			RASI			LPSI			RPSI			LTHI			LKNE			LTIB			LANK			LHEE			LTOE			RTHI			RKNE			RTIB			RANK			RHEE			RTOE			*39			*40			*41			
		X1	Y1	Z1	X2	Y2	Z2	X3	Y3	Z3	X4	Y4	Z4	X5	Y5	Z5	X6	Y6	Z6	X7	Y7	Z7	X8	Y8	Z8	X9	Y9	Z9	X10	Y10	Z10	X11	Y11	Z11	X12	Y12	Z12	X13	Y13	Z13	X14	Y14	Z14	X15	Y15	Z15	X16	Y16	Z16	X17	Y17	Z17	X18	Y18	Z18	X19	Y19	Z19	X20	Y20	Z20	X21	Y21	Z21	X22	Y22	Z22	X23	Y23	Z23	X24	Y24	Z24	X25	Y25	Z25	X26	Y26	Z26	X27	Y27	Z27	X28	Y28	Z28	X29	Y29	Z29	X30	Y30	Z30	X31	Y31	Z31	X32	Y32	Z32	X33	Y33	Z33	X34	Y34	Z34	X35	Y35	Z35	X36	Y36	Z36	X37	Y37	Z37	X38	Y38	Z38	X39	Y39	Z39	X40	Y40	Z40	X41	Y41	Z41	X42	Y42	Z42	

115	1.140	-957.20410	-462.30429	1714.27112	-1100.03711	-466.03503	1701.06409	-954.32452	-336.34549	1631.67310	-1097.14404	-327.88019	1616.42139	-1030.37903	-291.34125	1487.79382	-1057.00916	-264.51898	1209.52759	-1018.80273	-437.36243	1429.56995	-1039.31335	-504.28479	1265.17212	-1105.50476	-249.75854	1311.11475	-851.04248	-357.09732	1453.36169	-777.64252	-301.63876	1259.73792	-772.70972	-257.15411	1131.20532	-747.89355	-209.00716	1015.42780	-752.35187	-204.67859	873.01837	-732.75391	-161.20096	903.07837	-721.22766	-141.11276	841.05249	-1214.85828	-366.15961	1474.34546	-1318.86023	-365.69244	1293.25610	-1369.53064	-423.82782	1164.81750	-1375.01428	-534.77460	1110.91223	-1344.96167	-659.40381	1081.55481	-1373.23950	-640.88403	1035.99219	-1379.13452	-710.47327	1044.85510	-928.63062	-513.52844	966.05762	-1179.30322	-504.44702	941.77496	-1004.99146	-297.33115	1004.01117	-1123.34204	-294.44550	998.54712	-864.83331	-532.63007	670.69409	-901.84039	-574.73175	477.22409	-896.77435	-545.70953	286.83035	-930.81018	-560.65601	68.85664	-985.30408	-526.33704	41.91290	-911.46381	-715.92883	30.67583	-1274.06604	-363.06613	651.08630	-1273.09790	-318.50943	451.20450	-1286.29260	-166.07214	343.63809	-1265.51868	-23.19198	214.48207	-1205.80322	29.55866	207.58815	-1265.67285	-54.97739	49.47399	-1046.85474	-358.30807	1776.72705						 
116	1.150	-953.53467	-475.18820	1715.67847	-1096.57410	-479.37177	1703.26587	-951.55225	-349.45306	1633.37610	-1094.34375	-341.34668	1618.46008	-1028.13794	-304.65564	1489.16443	-1054.07178	-278.03339	1211.32971	-1016.24658	-450.89627	1431.50537	-1036.89697	-517.75977	1266.97156	-1103.52661	-262.82745	1313.67297	-848.67468	-370.13922	1455.34082	-774.74988	-316.68964	1260.92700	-768.73706	-274.26331	1131.67615	-744.26709	-228.25836	1014.96667	-749.81403	-227.69873	872.13885	-729.21545	-183.72562	900.85052	-718.40320	-165.67549	837.66901	-1212.41821	-379.75607	1475.92566	-1315.09106	-376.78003	1293.72852	-1364.01660	-432.79590	1163.89038	-1370.32886	-542.42633	1107.56140	-1340.86389	-666.44983	1075.16187	-1369.04224	-646.64307	1029.89490	-1375.49695	-716.19849	1037.16223	-924.25299	-526.78534	968.40662	-1174.13757	-518.38837	942.37915	-1001.99536	-311.01556	1005.08813	-1120.19080	-307.92587	999.64618	-863.37238	-545.61987	670.79517	-900.40979	-582.68683	476.83936	-897.38617	-548.72406	286.72473	-930.93073	-560.93646	68.62926	-985.34851	-526.66827	41.83355	-911.62250	-715.96326	30.50441	-1270.64771	-384.95963	648.20111	-1271.15112	-345.91821	448.77112	-1284.66113	-191.71307	345.41034	-1261.80554	-44.74930	222.03969	-1201.55847	7.67576	217.60945	-1266.17688	-71.63499	57.19732	-1043.23987	-371.32489	1778.61353						 
117	1.160	-950.18060	-488.38147	1717.52502	-1093.33545	-492.76785	1705.78748	-948.68219	-363.29190	1634.89172	-1091.63647	-354.83630	1620.71973	-1026.17017	-318.12692	1491.29065	-1051.18652	-291.32773	1213.38367	-1013.88983	-464.14691	1433.62231	-1034.69421	-531.06128	1268.93896	-1101.34924	-275.74164	1316.16370	-846.38654	-383.12918	1457.54785	-771.63110	-331.54953	1262.76416	-765.30579	-291.61325	1132.32544	-741.07990	-248.66042	1014.07208	-747.53296	-252.04089	871.48938	-725.79852	-207.10167	898.80475	-715.63525	-191.35732	834.57263	-1210.05127	-393.08569	1477.68140	-1311.35461	-387.85333	1294.46814	-1359.19067	-441.72552	1163.60059	-1365.82434	-549.89844	1104.15002	-1336.83032	-673.00702	1067.98682	-1364.84912	-651.77307	1023.10352	-1371.81128	-721.26318	1028.45557	-920.24634	-539.70001	971.00189	-1169.78625	-531.80963	943.39429	-999.05627	-324.19101	1006.41028	-1116.75403	-320.73294	1001.02850	-861.86932	-556.72180	672.17218	-898.88696	-588.84766	476.30740	-898.12323	-550.30261	286.51590	-931.12579	-560.98724	68.69856	-985.39111	-526.60651	41.83040	-911.82953	-716.13507	30.44971	-1267.30750	-407.05005	646.32861	-1268.78333	-373.45502	447.26794	-1281.36731	-218.12892	347.58948	-1256.87256	-67.54881	229.38680	-1195.42932	-15.15148	224.75868	-1266.19714	-91.34322	64.82761	-1039.24231	-384.30807	1780.24316						 
118	1.170	-947.02759	-501.36746	1719.47717	-1089.97803	-506.07971	1708.24060	-946.01587	-376.04089	1636.58618	-1089.00940	-368.35464	1623.13379	-1024.03186	-331.34283	1493.76379	-1048.45764	-304.40366	1215.68103	-1011.62665	-477.34561	1436.01624	-1032.56335	-544.00049	1270.99377	-1098.80225	-288.56122	1318.76855	-844.13562	-396.20572	1460.02429	-768.78851	-347.14682	1264.69397	-761.44330	-309.43170	1133.26282	-737.17505	-269.63821	1013.64984	-745.21338	-277.02463	871.33185	-722.57574	-232.04015	896.87109	-712.91528	-218.81729	831.90314	-1207.89709	-406.27817	1479.48071	-1308.06067	-398.91928	1295.50085	-1354.45007	-450.73035	1163.53027	-1361.41028	-557.06464	1100.53772	-1332.64697	-678.81805	1059.99646	-1360.77917	-656.25519	1016.06342	-1367.98486	-725.73370	1018.93311	-916.75403	-552.11108	973.66455	-1166.36035	-544.65759	944.77960	-996.09772	-336.87708	1008.18317	-1113.16077	-332.95096	1002.70453	-860.07544	-567.02765	673.81598	-897.20587	-593.59912	475.86432	-898.38556	-551.37689	286.42511	-931.12787	-561.12793	68.84541	-985.61511	-526.61865	41.61208	-911.87323	-716.05231	30.45273	-1263.87524	-428.77649	646.00024	-1265.88879	-400.99484	447.02661	-1277.31445	-244.85477	350.46338	-1251.00281	-91.35068	235.96277	-1189.01416	-38.95984	230.09659	-1265.40149	-113.91328	71.65162	-1035.79382	-397.38037	1782.51465						 
